<?xml version="1.0" encoding="UTF-8"?>
<svg id="Layer_1" xmlns="http://www.w3.org/2000/svg" version="1.1" viewBox="0 0 300 72">
  <!-- Generator: Adobe Illustrator 29.6.1, SVG Export Plug-In . SVG Version: 2.1.1 Build 9)  -->
  <path d="M75.71,35.49c-.66-.32-.33-1.27-.43-1.89C71.24,6.63,38.66-5.7,19.52,14.92l-2.72,4.04c8.65-6.64,22.84-5.01,28.61,4.58,5.63,9.37.13,22.58-11.76,21.43-3.45-.33-7.21-2.9-7.56-6.55-.79-8.19,10.6-10.06,11.8-1.91,4.9-5.24-.32-12.43-6.48-13.08-8.56-.9-15.42,7.2-16.01,15.2-1.53,20.57,26.08,35.83,43.97,27.01l5.86-2.92c-12.37,11.64-32.74,11.84-46.47,2.38C-13.58,42.83,8.79-3.85,45.12.43c17.31,2.04,30.39,17.88,30.59,35.06Z"/>
  <path d="M92.7,13.32v45.16h-3.81V13.32h3.81ZM120.64,13.32l-19.48,20.69-9.83,9.65-.37-4.28,7.88-8.19,17-17.86h4.81ZM117.45,58.47l-19.01-23.2,2.29-3.1,21.37,26.3h-4.65Z"/>
  <path d="M130.88,13.32v45.16h-3.81V13.32h3.81Z"/>
  <path d="M139.76,13.32l8.25,32.9,2.48,12.25h-3.07l-11.57-45.16h3.91ZM151.14,46.53l9.8-33.22h3.07l-2.45,9.86-10.48,35.29h-2.95l3.01-11.94ZM164.39,13.32l9.65,33.22,2.98,11.94h-2.95l-10.23-35.29-2.51-9.86h3.07ZM177.23,46.19l8.13-32.87h3.91l-11.54,45.16h-3.07l2.57-12.28Z"/>
  <path d="M198.04,13.32v45.16h-3.81V13.32h3.81Z"/>
  <path d="M239.21,13.32v6.2h-35.94v-6.2h35.94ZM225.04,13.32v45.16h-7.72V13.32h7.72Z"/>
  <path d="M262.77,13.32v6.2h-35.94v-6.2h35.94ZM248.6,13.32v45.16h-7.72V13.32h7.72Z"/>
  <path d="M262.77,13.32h15.97c3.43,0,6.36.52,8.78,1.55s4.27,2.56,5.57,4.57,1.94,4.5,1.94,7.46c0,2.25-.41,4.24-1.24,5.95s-2,3.16-3.5,4.33-3.31,2.07-5.4,2.71l-2.36,1.15h-14.36l-.06-6.17h10.76c1.86,0,3.41-.33,4.65-.99s2.18-1.57,2.81-2.71.95-2.44.95-3.89c0-1.57-.3-2.94-.91-4.11s-1.55-2.07-2.81-2.7-2.86-.95-4.81-.95h-8.19v38.95h-7.78V13.32ZM288.54,58.47l-10.61-20.28,8.16-.03,10.76,19.91v.4h-8.31Z"/>
</svg>