<?xml version="1.0" encoding="UTF-8"?>
<svg id="Layer_1" xmlns="http://www.w3.org/2000/svg" version="1.1" viewBox="0 0 300 300">
  <!-- Generator: Adobe Illustrator 29.6.1, SVG Export Plug-In . SVG Version: 2.1.1 Build 9)  -->
  <path d="M273.5,148.27c-2.26-1.07-1.13-4.31-1.45-6.43-13.77-91.81-124.67-133.77-189.8-63.58l-9.26,13.73c29.43-22.61,77.74-17.07,97.37,15.58,19.17,31.88.43,76.87-40.03,72.95-11.74-1.14-24.54-9.87-25.75-22.31-2.71-27.89,36.09-34.24,40.16-6.52,16.67-17.84-1.08-42.31-22.06-44.52-29.14-3.08-52.47,24.51-54.5,51.74-5.22,70.01,88.76,121.97,149.67,91.94l19.94-9.92c-42.12,39.61-111.43,40.29-158.16,8.1C-30.43,173.23,45.72,14.35,169.39,28.93c58.91,6.95,103.43,60.86,104.12,119.34Z"/>
</svg>